<svg xmlns="http://www.w3.org/2000/svg" viewBox="0 0 817 356">
    <defs>
        <style>.cls-1{fill:#003366;}</style>
    </defs>
    <g id="Layer_3" data-name="Layer 3">
        <path class="cls-1" d="M1145,511A178,178,0,1,1,967,333,178,178,0,0,1,1145,511ZM967,363.5A147.5,147.5,0,1,0,1114.5,511,147.5,147.5,0,0,0,967,363.5Z" transform="translate(-560 -333)"/>
    </g>
    <g id="Layer_5" data-name="Layer 5">
        <path class="cls-1" d="M826.31,590.7a130,130,0,1,1,.48-164.81,5.47,5.47,0,0,1,2.19-2.05,147.49,147.49,0,1,0-1.5,169.47A5.36,5.36,0,0,1,826.31,590.7Z" transform="translate(-560 -333)"/>
        <path class="cls-1" d="M1229.5,360a147.35,147.35,0,0,0-122,64.61,5.62,5.62,0,0,1,3,2.15A130,130,0,1,1,1112,591.11a5.61,5.61,0,0,1-3.22,1.19A147.5,147.5,0,1,0,1229.5,360Z" transform="translate(-560 -333)"/>
    </g>
</svg>